<svg xmlns="http://www.w3.org/2000/svg" viewBox="0 0 32 32">
  <rect width="32" height="32" rx="6" fill="#10b981"/>
  <path d="M16 8c-1.5 0-2.5 1.2-3 2.5-.3.8-.5 1.7-.5 2.5 0 .5.1 1 .2 1.5-.8-.3-1.5-.8-2-1.5-.5-.7-.7-1.5-.7-2.3 0-1.2.5-2.3 1.3-3.1.4-.4.9-.6 1.4-.6.3 0 .6.1.9.2M16 8c1.5 0 2.5 1.2 3 2.5.3.8.5 1.7.5 2.5 0 .5-.1 1-.2 1.5.8-.3 1.5-.8 2-1.5.5-.7.7-1.5.7-2.3 0-1.2-.5-2.3-1.3-3.1-.4-.4-.9-.6-1.4-.6-.3 0-.6.1-.9.2M16 14.5v9.5m-2 0h4" 
        stroke="white" stroke-width="1.5" stroke-linecap="round" stroke-linejoin="round" fill="none"/>
</svg>
